<svg xmlns="http://www.w3.org/2000/svg" xmlns:xlink="http://www.w3.org/1999/xlink" preserveAspectRatio="xMidYMid" width="182.713" height="199.997" viewBox="0 0 74 81">
  <defs>
    <style>
      .cls-1 {
        fill: #626262;
        fill-rule: evenodd;
      }
    </style>
  </defs>
  <path d="M38.918,-0.013 C17.460,-0.013 0.003,15.719 0.003,35.056 C0.003,45.876 5.220,55.833 14.309,62.368 C14.473,62.519 14.878,63.513 14.724,65.381 C14.574,67.194 13.478,73.463 5.655,77.996 C5.182,78.270 4.911,78.889 4.985,79.522 C5.059,80.156 5.462,80.655 5.979,80.755 C6.033,80.766 7.327,81.012 9.387,81.012 C14.726,81.012 24.655,79.392 31.916,68.701 C32.491,68.821 33.071,68.960 33.655,69.100 C35.347,69.506 37.096,69.925 38.918,69.925 C59.573,69.925 73.999,55.586 73.999,35.056 C73.999,14.408 59.573,-0.013 38.918,-0.013 ZM38.918,67.007 C37.327,67.007 35.694,66.615 34.114,66.237 C33.264,66.033 32.424,65.832 31.592,65.687 C31.168,65.607 30.751,65.818 30.488,66.225 C24.211,75.939 15.511,77.879 10.325,78.076 C16.324,72.987 17.061,66.996 17.133,65.054 C17.223,62.591 16.623,60.650 15.525,59.859 C7.176,53.855 2.387,44.815 2.387,35.056 C2.387,17.328 18.775,2.904 38.918,2.904 C58.169,2.904 71.615,16.125 71.615,35.056 C71.615,53.869 58.169,67.007 38.918,67.007 Z" class="cls-1"/>
</svg>
