<svg xmlns="http://www.w3.org/2000/svg" xmlns:xlink="http://www.w3.org/1999/xlink" preserveAspectRatio="xMidYMid" width="244.441" height="199.997" viewBox="0 0 99 81">
  <defs>
    <style>
      .cls-1 {
        fill: #626262;
        fill-rule: evenodd;
      }
    </style>
  </defs>
  <path d="M98.950,48.274 C98.744,49.798 97.699,52.329 93.264,53.717 C94.335,54.651 95.108,56.010 95.210,57.359 C95.321,58.803 94.791,61.390 90.280,63.122 C91.270,63.830 92.276,65.049 92.276,67.321 C92.276,68.402 91.924,69.442 91.233,70.413 C90.545,71.377 89.396,72.119 88.373,72.737 C86.931,73.615 84.203,74.525 82.661,74.791 L82.422,74.832 C75.325,76.015 66.572,77.470 53.650,77.470 C52.994,77.470 52.327,77.466 51.647,77.459 C43.707,77.360 39.239,75.461 37.094,74.548 C36.746,74.401 36.492,74.284 36.307,74.232 C36.446,74.271 36.805,74.305 37.196,74.163 C36.383,74.380 35.423,74.085 35.076,73.446 C34.716,72.783 34.970,72.032 35.762,71.704 C36.698,71.311 37.513,71.654 38.634,72.131 C40.551,72.946 44.545,74.644 51.697,74.733 C65.334,74.889 74.454,73.377 81.758,72.161 L81.983,72.122 C83.117,71.927 85.378,71.160 86.384,70.548 C86.935,70.216 87.952,69.600 88.351,69.041 C88.742,68.493 88.940,67.914 88.940,67.321 C88.940,65.509 88.103,65.124 87.296,64.751 C86.790,64.518 85.448,63.900 85.797,62.652 C86.114,61.448 87.237,61.154 87.778,61.012 C87.871,60.989 87.971,60.962 88.082,60.927 C89.876,60.357 91.978,59.318 91.885,57.574 C91.815,56.289 90.640,55.314 90.265,55.225 C88.262,54.807 87.989,53.868 88.001,53.345 C88.019,52.688 88.568,51.894 90.058,51.639 C92.434,51.242 95.323,50.284 95.634,47.975 C95.883,46.106 94.350,44.126 93.194,43.703 C92.300,43.379 91.311,43.181 90.516,43.022 C89.250,42.768 87.941,42.505 87.843,41.350 C87.745,40.203 89.140,39.749 89.598,39.600 L90.015,39.467 C92.145,38.799 93.909,38.089 93.909,36.151 C93.909,35.207 93.633,34.538 93.066,34.103 C92.178,33.416 90.677,33.233 89.930,33.233 L75.140,33.233 C73.683,33.233 71.376,32.353 71.020,30.761 C70.505,28.461 69.802,25.314 72.851,20.360 C73.596,19.148 73.717,15.792 72.477,11.962 C71.385,8.551 69.465,5.551 67.059,3.496 C66.696,3.285 65.438,2.617 64.235,2.787 C63.584,2.882 62.999,3.216 62.461,3.806 L62.461,13.025 C62.461,13.174 62.452,13.371 62.389,13.590 C62.343,14.069 61.850,17.474 60.146,19.899 C59.146,21.324 54.927,26.892 51.367,31.361 C48.563,34.879 46.658,37.097 45.703,37.957 C43.374,40.065 39.483,40.420 36.633,40.350 C35.712,40.326 34.989,39.698 35.017,38.945 C35.046,38.193 35.864,37.621 36.738,37.624 C38.497,37.680 41.676,37.536 43.229,36.126 C43.705,35.699 45.023,34.325 48.570,29.874 C52.349,25.131 56.395,19.766 57.250,18.543 C58.386,16.928 58.951,14.384 59.107,13.135 L59.125,3.384 C59.125,3.125 59.216,2.871 59.385,2.651 C60.513,1.206 61.950,0.349 63.657,0.104 C66.274,-0.272 68.548,0.990 69.181,1.387 C69.243,1.428 69.304,1.470 69.361,1.519 C72.204,3.907 74.456,7.370 75.703,11.268 C77.038,15.389 77.090,19.537 75.830,21.585 C73.283,25.722 73.824,28.138 74.299,30.269 C74.371,30.291 74.899,30.507 75.140,30.507 L89.930,30.507 C90.712,30.507 93.418,30.623 95.353,32.119 C96.609,33.081 97.245,34.439 97.245,36.151 C97.245,38.658 95.557,40.111 93.859,40.982 C94.089,41.054 94.322,41.130 94.552,41.213 C97.015,42.113 99.367,45.164 98.950,48.274 ZM32.791,34.367 C34.274,35.910 33.938,37.973 33.784,38.620 L33.784,76.493 C33.784,80.047 30.850,80.995 29.116,80.995 C29.088,80.995 29.014,80.995 28.986,80.993 L12.713,80.995 C4.826,80.995 2.744,75.661 2.744,72.841 C2.726,72.676 0.500,46.850 0.027,40.257 C-0.143,37.916 0.544,36.061 2.062,34.742 C4.025,33.040 6.740,32.786 8.184,32.786 C8.632,32.786 8.903,32.811 8.903,32.811 L28.280,32.804 C30.765,32.804 32.105,33.654 32.791,34.367 ZM30.165,36.048 C29.829,35.704 29.197,35.530 28.280,35.530 L8.725,35.530 C8.525,35.521 8.391,35.512 8.184,35.512 C7.454,35.512 5.634,35.619 4.490,36.613 C3.626,37.362 3.245,38.533 3.358,40.097 C3.830,46.676 6.054,72.486 6.075,72.745 C6.086,73.391 6.323,78.268 12.713,78.268 L29.071,78.268 L29.116,79.631 L29.116,78.268 C29.614,78.268 30.448,78.036 30.448,76.493 L30.448,38.477 C30.448,38.368 30.463,38.260 30.495,38.155 C30.593,37.804 30.750,36.648 30.165,36.048 Z" class="cls-1"/>
</svg>
